<svg xmlns="http://www.w3.org/2000/svg" width="838" height="844" viewBox="0 0 838 844" role="img" aria-label="Block logo" shape-rendering="crispEdges">
  <rect width="838" height="844" fill="#ffffff"/>

  <g fill="#a3e635">
    <rect x="193" y="224" width="102" height="306"/>
    <rect x="295" y="326" width="102" height="102"/>
    <rect x="498" y="108" width="204" height="218"/>
    <rect x="396" y="428" width="204" height="102"/>
    <rect x="498" y="326" width="102" height="306"/>
  </g>

  <g fill="#000000">
    <rect x="193" y="108" width="102" height="116"/>
    <rect x="91" y="224" width="102" height="509"/>
    <rect x="193" y="530" width="102" height="203"/>
    <rect x="295" y="224" width="102" height="102"/>
    <rect x="295" y="428" width="102" height="102"/>
    <rect x="396" y="326" width="102" height="102"/>
    <rect x="396" y="530" width="102" height="102"/>
    <rect x="498" y="632" width="102" height="102"/>
    <rect x="600" y="326" width="102" height="306"/>
  </g>
</svg>
